<svg width="20" height="20" viewBox="0 0 20 20" fill="none" xmlns="http://www.w3.org/2000/svg">
<path d="M15.6961 8.61182V7.22276C15.6961 5.74915 15.1107 4.33589 14.0687 3.29389C13.0267 2.25189 11.6135 1.6665 10.1398 1.6665C8.66624 1.6665 7.25298 2.25189 6.21098 3.29389C5.16898 4.33589 4.58359 5.74915 4.58359 7.22276V8.61182C4.56654 9.03546 4.46232 9.45104 4.27746 9.8326C4.09259 10.2142 3.83105 10.5535 3.50915 10.8295C2.93075 11.3223 2.56847 12.0222 2.5 12.779C2.5 14.5153 5.35591 15.5571 10.1398 15.5571C14.9238 15.5571 17.7797 14.5153 17.7797 12.779C17.7112 12.0222 17.3489 11.3223 16.7705 10.8295C16.4486 10.5535 16.1871 10.2142 16.0022 9.8326C15.8174 9.45104 15.7132 9.03546 15.6961 8.61182Z" fill="#4D7AE5"/>
<path d="M8.15696 16.8767C8.28933 17.299 8.55305 17.668 8.9097 17.9299C9.26636 18.1919 9.69732 18.3332 10.1398 18.3332C10.5824 18.3332 11.0133 18.1919 11.37 17.9299C11.7266 17.668 11.9904 17.299 12.1227 16.8767C11.5018 16.9226 10.842 16.9462 10.1398 16.9462C9.43767 16.9462 8.77787 16.924 8.15696 16.8767Z" fill="#4D7AE5"/>
</svg>
