<svg width="20" height="20" viewBox="0 0 20 20" fill="none" xmlns="http://www.w3.org/2000/svg">
<path fill-rule="evenodd" clip-rule="evenodd" d="M6.14305 3.29389C7.16598 2.25189 8.55336 1.6665 10 1.6665C11.4466 1.6665 12.834 2.25189 13.8569 3.29389C14.8799 4.33589 15.4545 5.74915 15.4545 7.22276V9.30635C15.4545 10.199 15.8344 10.7498 16.3067 11.2951C16.3613 11.3581 16.4214 11.4254 16.4841 11.4958C16.6741 11.7088 16.8889 11.9497 17.0534 12.1843C17.29 12.5218 17.5 12.9444 17.5 13.4735C17.5 14.0627 17.1632 14.5209 16.7581 14.844C16.3528 15.1673 15.8033 15.4221 15.1703 15.6216C13.8971 16.0228 12.1183 16.2517 10 16.2517C7.88165 16.2517 6.10289 16.0228 4.82975 15.6216C4.19665 15.4221 3.6472 15.1673 3.24193 14.844C2.83679 14.5209 2.5 14.0627 2.5 13.4735C2.5 12.9444 2.70996 12.5218 2.9466 12.1843C3.11111 11.9497 3.32593 11.7088 3.51589 11.4958C3.57864 11.4254 3.63868 11.3581 3.69329 11.2951C4.16562 10.7498 4.54545 10.199 4.54545 9.30635V7.22276C4.54545 5.74915 5.12013 4.33589 6.14305 3.29389ZM10 3.05557C8.91502 3.05557 7.87448 3.49461 7.10729 4.27611C6.3401 5.05761 5.90909 6.11755 5.90909 7.22276V9.30635C5.90909 10.7057 5.2662 11.5787 4.7158 12.2141C4.62724 12.3163 4.5468 12.4066 4.4731 12.4892C4.3043 12.6786 4.17087 12.8282 4.05624 12.9917C3.90935 13.2012 3.86364 13.3428 3.86364 13.4735C3.86357 13.4767 3.86156 13.574 4.08264 13.7504C4.30592 13.9285 4.68119 14.1208 5.23275 14.2946C6.32893 14.64 7.95926 14.8626 10 14.8626C12.0407 14.8626 13.6711 14.64 14.7673 14.2946C15.3188 14.1208 15.6941 13.9285 15.9174 13.7504C16.1384 13.574 16.1364 13.4768 16.1364 13.4736C16.1364 13.3429 16.0906 13.2012 15.9438 12.9917C15.8291 12.8282 15.6957 12.6786 15.5269 12.4892C15.4532 12.4066 15.3728 12.3163 15.2842 12.2141C14.7338 11.5787 14.0909 10.7057 14.0909 9.30635V7.22276C14.0909 6.11755 13.6599 5.05761 12.8927 4.27611C12.1255 3.49461 11.085 3.05557 10 3.05557Z" fill="#BFBFBF"/>
<path d="M10 16.9462C9.31068 16.9462 8.66295 16.9226 8.05341 16.8767C8.18336 17.299 8.44225 17.668 8.79237 17.9299C9.1425 18.1919 9.56558 18.3332 10 18.3332C10.4344 18.3332 10.8575 18.1919 11.2076 17.9299C11.5578 17.668 11.8166 17.299 11.9466 16.8767C11.337 16.9226 10.6893 16.9462 10 16.9462Z" fill="#BFBFBF"/>
</svg>
