<svg width="20" height="20" viewBox="0 0 20 20" fill="none" xmlns="http://www.w3.org/2000/svg">
<path d="M10.0001 1.6665C8.35191 1.6665 6.74074 2.15525 5.37033 3.07092C3.99992 3.9866 2.93182 5.28809 2.30109 6.81081C1.67036 8.33352 1.50533 10.0091 1.82687 11.6256C2.14842 13.2421 2.94209 14.727 4.10753 15.8924C5.27297 17.0578 6.75782 17.8515 8.37433 18.173C9.99084 18.4946 11.6664 18.3296 13.1891 17.6988C14.7118 17.0681 16.0133 16 16.929 14.6296C17.8447 13.2592 18.3334 11.648 18.3334 9.99984C18.331 7.79043 17.4523 5.6722 15.89 4.10992C14.3277 2.54763 12.2095 1.66889 10.0001 1.6665V1.6665ZM10.714 14.6693H9.27994V8.61095H10.714V14.6693ZM10.5952 6.70748C10.5161 6.77999 10.4232 6.83581 10.322 6.87161C10.2208 6.9074 10.1135 6.92243 10.0063 6.91581C9.89725 6.92306 9.78783 6.90837 9.68453 6.87258C9.58123 6.8368 9.48616 6.78065 9.40494 6.70748C9.33321 6.63023 9.27778 6.53931 9.24198 6.44016C9.20619 6.341 9.19076 6.23565 9.19661 6.13039C9.18935 6.02269 9.20407 5.91463 9.23988 5.8128C9.2757 5.71096 9.33186 5.61748 9.40494 5.53803C9.48638 5.46518 9.58148 5.40925 9.68472 5.37348C9.78796 5.33772 9.89729 5.32283 10.0063 5.3297C10.1134 5.32347 10.2207 5.33869 10.3218 5.37446C10.4229 5.41024 10.5159 5.46585 10.5952 5.53803C10.6683 5.61748 10.7245 5.71096 10.7603 5.8128C10.7961 5.91463 10.8108 6.02269 10.8036 6.13039C10.8094 6.23565 10.794 6.341 10.7582 6.44016C10.7224 6.53931 10.667 6.63023 10.5952 6.70748Z" fill="white"/>
</svg>
