<svg width="25" height="24" viewBox="0 0 25 24" fill="none" xmlns="http://www.w3.org/2000/svg">
<path fill-rule="evenodd" clip-rule="evenodd" d="M22.25 11.3333C22.25 6.55739 17.6288 3 12.25 3C6.87117 3 2.25 6.55739 2.25 11.3333C2.25 13.2934 3.08348 15.0521 4.37726 16.4603L3.76091 21.802L9.71697 19.3792C10.553 19.596 11.382 19.6667 12.25 19.6667C17.6288 19.6667 22.25 16.1093 22.25 11.3333ZM12.25 4.66667C17.0378 4.66667 20.5833 7.77594 20.5833 11.3333C20.5833 14.8907 17.0378 18 12.25 18C11.3848 18 10.6377 17.9213 9.90612 17.7018L9.62476 17.6174L5.73909 19.198L6.124 15.8622L5.83926 15.5774C4.62683 14.365 3.91667 12.9002 3.91667 11.3333C3.91667 7.77594 7.46216 4.66667 12.25 4.66667Z" fill="#6E87AA"/>
</svg>
