<svg width="25" height="24" viewBox="0 0 25 24" fill="none" xmlns="http://www.w3.org/2000/svg">
<path d="M16.9167 15.3333C14.4575 15.3333 12.4142 14.8008 11.0833 13.9067C11.0833 14.5283 11.0833 14.9383 11.0833 15.3333C11.0833 16.7142 13.695 17.8333 16.9167 17.8333C20.1383 17.8333 22.75 16.7142 22.75 15.3333C22.75 14.9383 22.75 14.5283 22.75 13.9067C21.4192 14.8008 19.3758 15.3333 16.9167 15.3333Z" fill="#6E87AA"/>
<path d="M16.9167 19.5C14.4575 19.5 12.4142 18.9675 11.0833 18.0733C11.0833 18.695 11.0833 19.105 11.0833 19.5C11.0833 20.8808 13.695 22 16.9167 22C20.1383 22 22.75 20.8808 22.75 19.5C22.75 19.105 22.75 18.695 22.75 18.0733C21.4192 18.9675 19.3758 19.5 16.9167 19.5Z" fill="#6E87AA"/>
<path d="M16.9167 13.6667C20.1383 13.6667 22.75 12.5474 22.75 11.1667C22.75 9.78595 20.1383 8.66667 16.9167 8.66667C13.695 8.66667 11.0833 9.78595 11.0833 11.1667C11.0833 12.5474 13.695 13.6667 16.9167 13.6667Z" fill="#6E87AA"/>
<path d="M8.58333 7C11.805 7 14.4167 5.88071 14.4167 4.5C14.4167 3.11929 11.805 2 8.58333 2C5.36167 2 2.75 3.11929 2.75 4.5C2.75 5.88071 5.36167 7 8.58333 7Z" fill="#6E87AA"/>
<path d="M9.41667 16.9775C9.14417 16.9908 8.8675 17 8.58333 17C6.12417 17 4.08083 16.4675 2.75 15.5733C2.75 16.195 2.75 16.605 2.75 17C2.75 18.3808 5.36167 19.5 8.58333 19.5C8.86667 19.5 9.14417 19.4883 9.41667 19.4717V16.9775Z" fill="#6E87AA"/>
<path d="M9.41667 12.8108C9.14417 12.8242 8.8675 12.8333 8.58333 12.8333C6.12417 12.8333 4.08083 12.3008 2.75 11.4067C2.75 12.0283 2.75 12.4383 2.75 12.8333C2.75 14.2142 5.36167 15.3333 8.58333 15.3333C8.86667 15.3333 9.14417 15.3217 9.41667 15.305V12.8108Z" fill="#6E87AA"/>
<path d="M11.0167 8.47167C10.265 8.59667 9.45167 8.66667 8.58333 8.66667C6.12417 8.66667 4.08083 8.13417 2.75 7.24C2.75 7.86167 2.75 8.27167 2.75 8.66667C2.75 10.0475 5.36167 11.1667 8.58333 11.1667C8.8675 11.1667 9.145 11.155 9.41917 11.1383C9.42917 10.0858 10.0083 9.17167 11.0167 8.47167Z" fill="#6E87AA"/>
</svg>
