<svg width="24" height="24" viewBox="0 0 24 24" fill="none" xmlns="http://www.w3.org/2000/svg">
<path d="M12 12.8333C12.9205 12.8333 13.6667 12.0871 13.6667 11.1667C13.6667 10.2462 12.9205 9.5 12 9.5C11.0795 9.5 10.3333 10.2462 10.3333 11.1667C10.3333 12.0871 11.0795 12.8333 12 12.8333Z" fill="#366AE2"/>
<path d="M17.8333 5.33333V3.25C17.8333 2.56 17.2733 2 16.5833 2C15.8933 2 15.3333 2.56 15.3333 3.25V5.33333H14.5V3.25C14.5 2.56 13.94 2 13.25 2C12.56 2 12 2.56 12 3.25V5.33333H11.1667V3.25C11.1667 2.56 10.6067 2 9.91667 2C9.22667 2 8.66667 2.56 8.66667 3.25V5.33333H7.83333V3.25C7.83333 2.56 7.27333 2 6.58333 2C5.89333 2 5.33333 2.56 5.33333 3.25V5.33333H2V17H5.55167C6.2925 19.8742 8.89417 22 12 22C15.1058 22 17.7067 19.8742 18.4483 17H22V5.33333H17.8333ZM20.3333 15.3333H18.6667V8.66667C16.8258 8.66667 15.3333 10.1592 15.3333 12V14.5C14.4933 14.5 13.7358 14.8208 13.15 15.3333C12 16.4008 11.5833 17.8592 11.5833 17.8592C11.5833 17.8592 11.1542 16.7758 11.3567 15.3333H3.66667V7H20.3333V15.3333Z" fill="#366AE2"/>
</svg>
