<svg width="20" height="20" viewBox="0 0 20 20" fill="none" xmlns="http://www.w3.org/2000/svg">
<path d="M11.6666 1.66669H4.0277C3.84352 1.66669 3.66688 1.73985 3.53665 1.87009C3.40642 2.00032 3.33325 2.17695 3.33325 2.36113V17.6389C3.33325 17.8231 3.40642 17.9997 3.53665 18.13C3.66688 18.2602 3.84352 18.3334 4.0277 18.3334H16.5277C16.7119 18.3334 16.8885 18.2602 17.0187 18.13C17.149 17.9997 17.2221 17.8231 17.2221 17.6389V7.22224H12.361C12.1769 7.22224 12.0002 7.14908 11.87 7.01884C11.7397 6.88861 11.6666 6.71198 11.6666 6.5278V1.66669Z" fill="white"/>
<path d="M16.8152 5.83335H13.0555V2.07363L16.8152 5.83335Z" fill="white"/>
</svg>
