<svg width="24" height="24" viewBox="0 0 24 24" fill="none" xmlns="http://www.w3.org/2000/svg">
<path fill-rule="evenodd" clip-rule="evenodd" d="M12.8333 4.5H22V6.16667H12.8333V4.5Z" fill="#262626"/>
<path fill-rule="evenodd" clip-rule="evenodd" d="M2 4.5H6.16667V6.16667H2V4.5Z" fill="#262626"/>
<path fill-rule="evenodd" clip-rule="evenodd" d="M19.5 11.1667H22V12.8333H19.5V11.1667Z" fill="#262626"/>
<path fill-rule="evenodd" clip-rule="evenodd" d="M2 11.1667H12.8333V12.8333H2V11.1667Z" fill="#262626"/>
<path fill-rule="evenodd" clip-rule="evenodd" d="M12.8333 17.8333H22V19.5H12.8333V17.8333Z" fill="#262626"/>
<path fill-rule="evenodd" clip-rule="evenodd" d="M2 17.8333H6.16667V19.5H2V17.8333Z" fill="#262626"/>
<path fill-rule="evenodd" clip-rule="evenodd" d="M7.83333 3.66667C6.91286 3.66667 6.16667 4.41286 6.16667 5.33333C6.16667 6.25381 6.91286 7 7.83333 7C8.75381 7 9.5 6.25381 9.5 5.33333C9.5 4.41286 8.75381 3.66667 7.83333 3.66667ZM4.5 5.33333C4.5 3.49238 5.99238 2 7.83333 2C9.67428 2 11.1667 3.49238 11.1667 5.33333C11.1667 7.17428 9.67428 8.66667 7.83333 8.66667C5.99238 8.66667 4.5 7.17428 4.5 5.33333Z" fill="#262626"/>
<path fill-rule="evenodd" clip-rule="evenodd" d="M14.5 10.3333C13.5795 10.3333 12.8333 11.0795 12.8333 12C12.8333 12.9205 13.5795 13.6667 14.5 13.6667C15.4205 13.6667 16.1667 12.9205 16.1667 12C16.1667 11.0795 15.4205 10.3333 14.5 10.3333ZM11.1667 12C11.1667 10.1591 12.6591 8.66667 14.5 8.66667C16.3409 8.66667 17.8333 10.1591 17.8333 12C17.8333 13.8409 16.3409 15.3333 14.5 15.3333C12.6591 15.3333 11.1667 13.8409 11.1667 12Z" fill="#262626"/>
<path fill-rule="evenodd" clip-rule="evenodd" d="M7.83333 17C6.91286 17 6.16667 17.7462 6.16667 18.6667C6.16667 19.5871 6.91286 20.3333 7.83333 20.3333C8.75381 20.3333 9.5 19.5871 9.5 18.6667C9.5 17.7462 8.75381 17 7.83333 17ZM4.5 18.6667C4.5 16.8257 5.99238 15.3333 7.83333 15.3333C9.67428 15.3333 11.1667 16.8257 11.1667 18.6667C11.1667 20.5076 9.67428 22 7.83333 22C5.99238 22 4.5 20.5076 4.5 18.6667Z" fill="#262626"/>
</svg>
