<svg width="20" height="20" viewBox="0 0 20 20" fill="none" xmlns="http://www.w3.org/2000/svg">
<path d="M18.4871 9.86375L10.4421 1.82469C10.3842 1.76665 10.3154 1.72061 10.2397 1.68919C10.1639 1.65777 10.0827 1.6416 10.0007 1.6416C9.91873 1.6416 9.83754 1.65777 9.7618 1.68919C9.68605 1.72061 9.61725 1.76665 9.55933 1.82469L1.5144 9.86375C1.28003 10.0981 1.14722 10.4165 1.14722 10.7485C1.14722 11.438 1.70776 11.9985 2.39722 11.9985H3.24487V17.7348C3.24487 18.0805 3.52417 18.3598 3.86987 18.3598H8.75073V13.9848H10.9382V18.3598H16.1316C16.4773 18.3598 16.7566 18.0805 16.7566 17.7348V11.9985H17.6042C17.9363 11.9985 18.2546 11.8677 18.489 11.6313C18.9753 11.143 18.9753 10.352 18.4871 9.86375V9.86375Z" fill="#366AE2"/>
</svg>
