<svg width="24" height="24" viewBox="0 0 24 24" fill="none" xmlns="http://www.w3.org/2000/svg">
<path fill-rule="evenodd" clip-rule="evenodd" d="M4.72727 3.81818C4.2252 3.81818 3.81818 4.2252 3.81818 4.72727V19.2727C3.81818 19.7748 4.2252 20.1818 4.72727 20.1818H19.2727C19.7748 20.1818 20.1818 19.7748 20.1818 19.2727V4.72727C20.1818 4.2252 19.7748 3.81818 19.2727 3.81818H4.72727ZM2 4.72727C2 3.22104 3.22104 2 4.72727 2H19.2727C20.779 2 22 3.22104 22 4.72727V19.2727C22 20.779 20.779 22 19.2727 22H4.72727C3.22104 22 2 20.779 2 19.2727V4.72727Z" fill="#6E87AA"/>
<path d="M18.3155 15.8873L15.1336 9.52367C15.0991 9.45471 15.0476 9.39567 14.984 9.3521C14.9204 9.30852 14.8468 9.28184 14.77 9.27458C14.6928 9.26908 14.6154 9.28281 14.5448 9.31454C14.4742 9.34627 14.4126 9.39501 14.3655 9.45639L10.6191 14.4509L8.71273 12.1637C8.66673 12.1085 8.60831 12.065 8.54225 12.0367C8.47619 12.0085 8.40437 11.9963 8.3327 12.0012C8.26102 12.0061 8.19152 12.0279 8.12989 12.0648C8.06827 12.1017 8.01628 12.1528 7.97818 12.2137L5.70546 15.85C5.66245 15.9188 5.63865 15.9979 5.63652 16.079C5.63439 16.1601 5.65401 16.2403 5.69334 16.3113C5.73268 16.3823 5.79029 16.4414 5.8602 16.4826C5.93011 16.5238 6.00977 16.5455 6.09091 16.5455H17.9091C17.9866 16.5455 18.0628 16.5257 18.1305 16.4879C18.1982 16.4501 18.2551 16.3957 18.2958 16.3297C18.3366 16.2638 18.3597 16.1885 18.3632 16.1111C18.3666 16.0336 18.3502 15.9566 18.3155 15.8873Z" fill="#6E87AA"/>
<path d="M9.72727 9.27273C10.4804 9.27273 11.0909 8.66221 11.0909 7.90909C11.0909 7.15598 10.4804 6.54545 9.72727 6.54545C8.97416 6.54545 8.36364 7.15598 8.36364 7.90909C8.36364 8.66221 8.97416 9.27273 9.72727 9.27273Z" fill="#6E87AA"/>
</svg>
