<svg width="32" height="32" viewBox="0 0 32 32" fill="none" xmlns="http://www.w3.org/2000/svg">
<path d="M17.6481 14.0721V8.2365C18.6452 8.36832 19.619 8.63833 20.5414 9.03873L22.0348 9.77428L23.5115 6.78539L22.0147 6.04873C20.6336 5.4209 19.1583 5.02485 17.6481 4.8765V2.6665H15.4225V4.86984C11.4864 5.20984 8.99819 7.42539 8.99819 10.7187C8.99819 14.8587 12.5303 16.1076 15.4225 16.9154V22.7665C13.8153 22.6806 12.2277 22.3744 10.7041 21.8565L9.13395 21.2909L8 24.4254L9.57018 24.9921C11.4566 25.6453 13.4278 26.0221 15.4225 26.111V29.3332H17.6481V26.0965C23.3512 25.6176 24 21.9009 24 20.2476C24 16.1432 20.5269 14.8809 17.6481 14.0721ZM12.3366 10.7187C12.3366 8.94095 14.1171 8.38539 15.4225 8.21984V13.4332C13.3081 12.7687 12.3366 12.1365 12.3366 10.7187ZM17.6481 22.7465V17.5554C19.7146 18.2121 20.6616 18.8454 20.6616 20.2465C20.6616 20.8687 20.6527 22.4098 17.6481 22.7465Z" fill="#FFC53D"/>
</svg>
