<svg width="342" height="342" viewBox="0 0 342 342" fill="none" xmlns="http://www.w3.org/2000/svg">
<path d="M55.5544 156.39C42.2985 128.92 39.5488 96.4167 67.3671 81.8338C91.1703 69.344 112.306 93.2087 134.187 98.7833C179.591 110.343 270.57 52.7159 282.95 125.87C301.001 232.56 101.697 252.04 55.5544 156.39Z" fill="#407BFF"/>
<path opacity="0.9" d="M55.5544 156.39C42.2985 128.92 39.5488 96.4167 67.3671 81.8338C91.1703 69.344 112.306 93.2087 134.187 98.7833C179.591 110.343 270.57 52.7159 282.95 125.87C301.001 232.56 101.697 252.04 55.5544 156.39Z" fill="white"/>
<path d="M171 298.607C244.244 298.607 303.62 295.141 303.62 290.864C303.62 286.588 244.244 283.121 171 283.121C97.7552 283.121 38.3789 286.588 38.3789 290.864C38.3789 295.141 97.7552 298.607 171 298.607Z" fill="#F5F5F5"/>
<path d="M108.482 124.488C108.366 126.437 108.14 128.23 107.887 130.083C107.634 131.937 107.285 133.749 106.895 135.555C106.134 139.256 105.03 142.879 103.599 146.376L103.01 147.689L102.86 148.018L102.785 148.182C102.785 148.237 102.744 148.278 102.689 148.394C102.48 148.809 102.22 149.198 101.916 149.55C101.195 150.377 100.194 150.908 99.1047 151.041C98.2932 151.129 97.4723 151.043 96.697 150.788C95.6095 150.418 94.5836 149.888 93.6532 149.215C92.8472 148.637 92.0752 148.014 91.3413 147.347C88.6123 144.801 86.1591 141.974 84.0225 138.914L86.2933 136.992C87.5587 138.182 88.8857 139.386 90.2058 140.535C91.5259 141.684 92.8871 142.778 94.2483 143.756C94.9078 144.231 95.5928 144.67 96.3003 145.07C96.8612 145.406 97.4668 145.662 98.0992 145.829C98.3112 145.87 98.448 145.829 98.3523 145.829C98.1644 145.848 97.9886 145.93 97.8529 146.061C97.8051 146.102 97.7982 146.109 97.8051 146.061L98.0103 145.521L98.4549 144.345C99.5723 141.099 100.446 137.775 101.068 134.399C101.41 132.703 101.649 130.979 101.909 129.256C102.169 127.532 102.347 125.767 102.497 124.132L108.482 124.488Z" fill="#EEC1BB"/>
<path d="M104.399 117.347C101.978 117.963 100.295 127.915 100.295 127.915L106.957 132.45C106.957 132.45 113.339 122.436 111.492 119.748C109.645 117.06 107.922 116.451 104.399 117.347Z" fill="#407BFF"/>
<path opacity="0.3" d="M104.399 117.347C101.978 117.963 100.295 127.915 100.295 127.915L106.957 132.45C106.957 132.45 113.339 122.436 111.492 119.748C109.645 117.06 107.922 116.451 104.399 117.347Z" fill="black"/>
<path d="M104.611 119.57L102.758 129.604L106.499 132.142L104.611 119.57Z" fill="#407BFF"/>
<path opacity="0.5" d="M104.611 119.57L102.758 129.604L106.499 132.142L104.611 119.57Z" fill="black"/>
<path d="M86.3618 136.602L83.1881 131.595L81.396 137.286C81.396 137.286 83.9952 140.022 86.3482 139.338L86.3618 136.602Z" fill="#EEC1BB"/>
<path d="M78.5437 129.94L77.292 134.782L81.3891 137.286L83.1881 131.595L78.5437 129.94Z" fill="#EEC1BB"/>
<path d="M117.483 284.872H111.615L111.218 271.281H117.087L117.483 284.872Z" fill="#EEC1BB"/>
<path d="M169.262 257.614L164.789 261.411L154.556 252.272L159.03 248.476L169.262 257.614Z" fill="#EEC1BB"/>
<path d="M163.565 260.959L167.901 255.993C167.974 255.906 168.076 255.848 168.189 255.832C168.301 255.815 168.416 255.841 168.51 255.905L172.936 258.77C173.041 258.846 173.129 258.943 173.194 259.055C173.26 259.166 173.302 259.29 173.317 259.419C173.333 259.547 173.321 259.677 173.284 259.801C173.247 259.925 173.184 260.04 173.1 260.138C171.561 261.842 170.733 262.587 168.825 264.769C167.648 266.137 166.089 268.189 164.454 270.05C162.819 271.91 160.911 270.405 161.424 269.489C163.702 265.385 163.154 263.928 163.189 261.903C163.204 261.555 163.337 261.223 163.565 260.959Z" fill="#263238"/>
<path d="M111.409 284.188H118.003C118.117 284.187 118.228 284.227 118.315 284.301C118.402 284.375 118.459 284.478 118.475 284.591L119.221 289.81C119.236 289.942 119.224 290.075 119.184 290.202C119.143 290.328 119.077 290.444 118.988 290.543C118.899 290.641 118.791 290.719 118.669 290.772C118.548 290.825 118.416 290.852 118.284 290.85C115.985 290.809 114.864 290.679 111.977 290.679C110.192 290.679 106.505 290.864 104.043 290.864C101.58 290.864 101.444 288.429 102.47 288.203C107.073 287.218 108.879 285.85 110.431 284.55C110.706 284.32 111.051 284.192 111.409 284.188Z" fill="#263238"/>
<path d="M111.218 271.288L111.423 278.292H117.292L117.094 271.288H111.218Z" fill="#DB9792"/>
<path d="M159.03 248.476L154.556 252.279L159.837 256.985L164.31 253.182L159.03 248.476Z" fill="#DB9792"/>
<path d="M108.606 90.8559C112.566 84.9666 122.06 83.0104 127.97 88.2909C135.494 95.0146 130.932 108.195 142.498 104.707C154.064 101.218 164.899 102.053 164.961 108.038C165.022 114.023 172.088 106.424 180.405 112.566C197.245 124.994 184.366 156.958 169.557 144.748C159.844 136.745 156.445 133.312 151.602 139.413C146.759 145.514 129.516 142.635 127.97 134.94C126.424 127.245 115.425 130.986 109.44 124.262C103.455 117.539 100.158 103.407 108.606 90.8559Z" fill="#263238"/>
<path d="M104.399 117.347C104.399 117.347 101.601 118.332 107.203 152.765H131.034C130.63 143.066 130.623 137.087 135.261 117.197C131.923 116.512 128.54 116.068 125.138 115.87C121.535 115.61 117.919 115.61 114.317 115.87C109.666 116.28 104.399 117.347 104.399 117.347Z" fill="#407BFF"/>
<path opacity="0.3" d="M104.399 117.347C104.399 117.347 101.601 118.332 107.203 152.765H131.034C130.63 143.066 130.623 137.087 135.261 117.197C131.923 116.512 128.54 116.068 125.138 115.87C121.535 115.61 117.919 115.61 114.317 115.87C109.666 116.28 104.399 117.347 104.399 117.347Z" fill="black"/>
<path d="M124.064 103.66C123.38 107.142 122.696 113.523 125.138 115.849C125.138 115.849 124.187 119.379 117.716 119.379C110.603 119.379 114.296 115.849 114.296 115.849C118.174 114.919 118.079 112.039 117.402 109.331L124.064 103.66Z" fill="#EEC1BB"/>
<path d="M121.355 105.972L117.422 109.331C117.593 109.96 117.706 110.603 117.757 111.253C119.242 111.034 121.28 109.406 121.437 107.833C121.522 107.213 121.494 106.582 121.355 105.972Z" fill="#DB9792"/>
<path d="M127.737 97.2717C126.369 102.935 125.917 105.363 122.504 107.785C117.374 111.437 110.719 108.517 110.363 102.566C110.042 97.2033 112.333 88.8448 118.339 87.5589C119.662 87.2687 121.037 87.3217 122.333 87.7128C123.63 88.104 124.805 88.8203 125.747 89.7936C126.689 90.767 127.366 91.965 127.714 93.2739C128.063 94.5828 128.07 95.959 127.737 97.2717Z" fill="#EEC1BB"/>
<path d="M107.203 152.765C107.203 152.765 102.573 197.97 102.956 215.864C103.359 234.482 110.179 276.931 110.179 276.931H118.113C118.113 276.931 116.855 235.57 117.559 217.286C118.325 197.361 124.652 152.765 124.652 152.765H107.203Z" fill="#407BFF"/>
<path opacity="0.5" d="M107.203 152.765C107.203 152.765 102.573 197.97 102.956 215.864C103.359 234.482 110.179 276.931 110.179 276.931H118.113C118.113 276.931 116.855 235.57 117.559 217.286C118.325 197.361 124.652 152.765 124.652 152.765H107.203Z" fill="black"/>
<path d="M118.797 277.218H109.488L108.804 274.249L119.235 273.887L118.797 277.218Z" fill="#407BFF"/>
<path opacity="0.3" d="M118.797 277.218H109.488L108.804 274.249L119.235 273.887L118.797 277.218Z" fill="white"/>
<path d="M117.477 164.016C111.629 175.788 116.308 197.272 118.373 205.262C119.44 193.264 121.226 178.586 122.621 167.813C121.752 161.718 120.179 158.585 117.477 164.016Z" fill="#407BFF"/>
<path opacity="0.6" d="M117.477 164.016C111.629 175.788 116.308 197.272 118.373 205.262C119.44 193.264 121.226 178.586 122.621 167.813C121.752 161.718 120.179 158.585 117.477 164.016Z" fill="black"/>
<path d="M113.497 152.765C113.497 152.765 118.893 199.762 122.97 214.851C127.813 232.765 157.854 256.869 157.854 256.869L163.948 251.692C163.948 251.692 142.156 225.501 138.456 216.069C130.556 195.925 137.32 165.911 131.007 152.765H113.497Z" fill="#407BFF"/>
<path opacity="0.5" d="M113.497 152.765C113.497 152.765 118.893 199.762 122.97 214.851C127.813 232.765 157.854 256.869 157.854 256.869L163.948 251.692C163.948 251.692 142.156 225.501 138.456 216.069C130.556 195.925 137.32 165.911 131.007 152.765H113.497Z" fill="black"/>
<path d="M164.953 251.411L157.381 257.84L154.556 256.144L163.113 248.182L164.953 251.411Z" fill="#407BFF"/>
<path opacity="0.3" d="M164.953 251.411L157.381 257.84L154.556 256.144L163.113 248.182L164.953 251.411Z" fill="white"/>
<path d="M118.763 97.3227C118.846 96.8577 118.665 96.437 118.36 96.383C118.055 96.329 117.741 96.6621 117.659 97.1271C117.577 97.5921 117.757 98.0128 118.062 98.0668C118.367 98.1208 118.681 97.7877 118.763 97.3227Z" fill="#263238"/>
<path d="M113.503 96.403C113.421 96.8681 113.106 97.2033 112.819 97.1486C112.532 97.0938 112.334 96.6698 112.416 96.2046C112.498 95.7395 112.812 95.4044 113.1 95.4591C113.387 95.5138 113.585 95.9379 113.503 96.403Z" fill="#263238"/>
<path d="M113.23 95.5071L112.169 94.9873C112.169 94.9873 112.587 95.9654 113.23 95.5071Z" fill="#263238"/>
<path d="M114.755 97.4497C114.151 98.4389 113.414 99.341 112.566 100.131C112.775 100.341 113.026 100.504 113.304 100.608C113.581 100.712 113.878 100.755 114.174 100.733L114.755 97.4497Z" fill="#D4827D"/>
<path d="M116.28 102.935C116.014 102.936 115.748 102.911 115.487 102.86C115.452 102.853 115.42 102.833 115.4 102.804C115.38 102.774 115.371 102.738 115.377 102.703C115.384 102.667 115.404 102.635 115.433 102.614C115.462 102.592 115.499 102.582 115.535 102.587C116.113 102.701 116.71 102.678 117.278 102.521C117.846 102.363 118.368 102.074 118.804 101.677C118.83 101.652 118.864 101.638 118.9 101.638C118.936 101.638 118.97 101.652 118.996 101.677C119.009 101.69 119.02 101.705 119.027 101.722C119.035 101.739 119.038 101.757 119.038 101.776C119.038 101.795 119.035 101.813 119.027 101.83C119.02 101.847 119.009 101.862 118.996 101.875C118.264 102.569 117.289 102.95 116.28 102.935Z" fill="#263238"/>
<path d="M118.571 87.0803C115.952 88.5851 122.416 102.812 127.142 100.815C131.868 98.8177 130.336 90.8765 127.997 88.8792C125.658 86.8819 122.204 85.0009 118.571 87.0803Z" fill="#263238"/>
<path d="M117.101 86.4098C117.101 86.4098 113.947 86.8681 111.841 90.8011C109.734 94.7341 121.841 86.957 120.131 86.4098C119.147 86.0818 118.084 86.0818 117.101 86.4098Z" fill="#263238"/>
<path d="M127.976 101.54C127.762 102.055 127.449 102.523 127.053 102.916C126.657 103.31 126.188 103.621 125.671 103.831C124.303 104.392 123.434 103.195 123.681 101.779C123.906 100.528 124.891 98.7286 126.348 98.7628C126.669 98.7747 126.981 98.8672 127.257 99.0319C127.532 99.1965 127.762 99.428 127.924 99.7048C128.086 99.9816 128.176 100.295 128.185 100.616C128.194 100.936 128.122 101.254 127.976 101.54Z" fill="#EEC1BB"/>
<path d="M120.213 94.2691C120.139 94.2684 120.068 94.2389 120.015 94.187C119.783 93.9252 119.492 93.7228 119.166 93.5967C118.84 93.4705 118.488 93.4243 118.141 93.4619C118.068 93.4739 117.994 93.457 117.934 93.4148C117.874 93.3726 117.833 93.3084 117.819 93.2362C117.812 93.2007 117.813 93.1642 117.82 93.1288C117.827 93.0933 117.841 93.0597 117.862 93.0298C117.882 92.9999 117.908 92.9744 117.938 92.9546C117.969 92.9349 118.003 92.9213 118.038 92.9147C118.477 92.8594 118.923 92.9114 119.338 93.0662C119.752 93.2211 120.123 93.4743 120.418 93.8039C120.469 93.8562 120.497 93.9261 120.497 93.9989C120.497 94.0716 120.469 94.1415 120.418 94.1938C120.392 94.2205 120.36 94.2411 120.324 94.2541C120.289 94.267 120.251 94.2722 120.213 94.2691Z" fill="#263238"/>
<path d="M111.588 93.5577C111.552 93.5576 111.517 93.5502 111.484 93.5361C111.451 93.522 111.421 93.5015 111.396 93.4756C111.346 93.4233 111.318 93.3534 111.318 93.2807C111.318 93.2079 111.346 93.138 111.396 93.0857C111.692 92.7573 112.064 92.5055 112.478 92.3518C112.893 92.1981 113.338 92.1472 113.777 92.2034C113.842 92.2241 113.898 92.2679 113.933 92.3267C113.968 92.3855 113.98 92.4551 113.968 92.5224C113.955 92.5897 113.918 92.6501 113.864 92.6921C113.81 92.7341 113.743 92.7549 113.674 92.7506C113.327 92.7138 112.977 92.7597 112.651 92.8846C112.325 93.0094 112.034 93.2096 111.8 93.4688C111.772 93.4971 111.739 93.5196 111.703 93.5348C111.667 93.5501 111.627 93.5579 111.588 93.5577Z" fill="#263238"/>
<path d="M137.833 123.448C139.117 126.577 140.229 129.774 141.164 133.024C142.147 136.317 142.872 139.681 143.332 143.086C143.421 143.968 143.524 144.837 143.551 145.754V146.438C143.583 146.896 143.548 147.357 143.448 147.806C143.355 148.182 143.205 148.542 143.004 148.873C142.77 149.251 142.466 149.581 142.108 149.844C141.563 150.235 140.922 150.472 140.254 150.528C139.848 150.567 139.439 150.556 139.037 150.494C138.732 150.452 138.43 150.391 138.134 150.309C137.636 150.171 137.147 150.002 136.67 149.803C135.832 149.447 135.017 149.04 134.228 148.585C131.292 146.86 128.52 144.87 125.945 142.642L127.627 140.186C130.507 141.643 133.435 143.161 136.301 144.331C136.985 144.625 137.73 144.878 138.387 145.077C138.681 145.165 138.98 145.236 139.283 145.289C139.388 145.297 139.493 145.297 139.597 145.289C139.666 145.289 139.7 145.289 139.597 145.289C139.347 145.315 139.11 145.412 138.913 145.569C138.579 145.824 138.339 146.182 138.229 146.588C138.161 146.814 138.188 147.005 138.161 146.704L138.099 146.15C138.038 145.419 137.901 144.666 137.778 143.914C137.504 142.395 137.176 140.87 136.759 139.345C136.342 137.819 135.924 136.287 135.452 134.762C134.474 131.732 133.4 128.64 132.279 125.713L137.833 123.448Z" fill="#EEC1BB"/>
<path d="M135.261 117.176C137.649 117.908 140.514 126.13 140.514 126.13L131.253 132.751C131.253 132.751 127.874 125.911 128.873 122.799C129.919 119.584 132.532 116.348 135.261 117.176Z" fill="#407BFF"/>
<path opacity="0.3" d="M135.261 117.176C137.649 117.908 140.514 126.13 140.514 126.13L131.253 132.751C131.253 132.751 127.874 125.911 128.873 122.799C129.919 119.584 132.532 116.348 135.261 117.176Z" fill="black"/>
<path d="M161.964 263.791C161.843 263.787 161.724 263.756 161.616 263.701C161.509 263.645 161.415 263.566 161.342 263.469C161.283 263.409 161.242 263.334 161.223 263.252C161.203 263.17 161.207 263.085 161.232 263.004C161.444 262.286 163.482 261.705 163.715 261.636C163.741 261.63 163.768 261.631 163.794 261.64C163.819 261.648 163.842 261.664 163.859 261.684C163.873 261.707 163.881 261.733 163.881 261.759C163.881 261.786 163.873 261.812 163.859 261.835C163.489 262.519 162.771 263.702 162.026 263.784L161.964 263.791ZM163.469 262.006C162.662 262.259 161.608 262.69 161.499 263.086C161.485 263.122 161.482 263.161 161.492 263.198C161.502 263.235 161.524 263.268 161.554 263.292C161.606 263.365 161.676 263.423 161.758 263.462C161.839 263.5 161.929 263.517 162.019 263.51C162.415 263.463 162.949 262.909 163.476 262.006H163.469Z" fill="#407BFF"/>
<path d="M162.826 262.026C162.219 262.086 161.612 261.918 161.123 261.554C161.055 261.467 161.018 261.36 161.018 261.25C161.018 261.139 161.055 261.032 161.123 260.945C161.179 260.854 161.256 260.778 161.348 260.722C161.439 260.666 161.543 260.633 161.65 260.624C162.491 260.508 163.77 261.623 163.825 261.67C163.843 261.687 163.856 261.707 163.864 261.73C163.873 261.752 163.876 261.777 163.873 261.8C163.867 261.824 163.855 261.846 163.838 261.864C163.821 261.882 163.8 261.896 163.777 261.903C163.468 261.99 163.147 262.032 162.826 262.026ZM161.793 260.891H161.704C161.637 260.899 161.572 260.921 161.514 260.957C161.457 260.992 161.407 261.04 161.369 261.096C161.273 261.24 161.308 261.322 161.369 261.376C161.615 261.705 162.771 261.828 163.476 261.698C162.998 261.282 162.417 261.003 161.793 260.891Z" fill="#407BFF"/>
<path d="M109.207 285.227C108.706 285.273 108.205 285.147 107.784 284.872C107.691 284.786 107.619 284.68 107.575 284.561C107.531 284.442 107.516 284.314 107.531 284.188C107.536 284.111 107.56 284.036 107.602 283.971C107.644 283.907 107.702 283.854 107.771 283.818C108.489 283.422 110.828 284.619 111.095 284.756C111.121 284.768 111.141 284.79 111.154 284.816C111.166 284.842 111.17 284.871 111.163 284.899C111.16 284.928 111.147 284.954 111.127 284.975C111.108 284.996 111.082 285.01 111.054 285.015C110.446 285.142 109.828 285.213 109.207 285.227ZM108.161 284.017C108.072 284.013 107.983 284.029 107.901 284.065C107.875 284.08 107.853 284.102 107.837 284.129C107.822 284.155 107.813 284.185 107.812 284.215C107.798 284.297 107.805 284.38 107.833 284.458C107.86 284.536 107.907 284.605 107.969 284.66C108.325 284.981 109.289 285.036 110.596 284.824C109.837 284.413 109.013 284.135 108.161 284.003V284.017Z" fill="#407BFF"/>
<path d="M111.027 285.008C111.009 285.015 110.989 285.015 110.972 285.008C110.288 284.694 108.886 283.428 108.995 282.765C108.995 282.608 109.132 282.409 109.515 282.375C109.653 282.358 109.794 282.37 109.927 282.411C110.061 282.452 110.184 282.522 110.288 282.615C111.027 283.223 111.163 284.803 111.163 284.872C111.167 284.895 111.164 284.92 111.154 284.941C111.145 284.963 111.129 284.982 111.109 284.995C111.084 285.008 111.055 285.013 111.027 285.008ZM109.659 282.628H109.576C109.317 282.628 109.303 282.758 109.296 282.786C109.234 283.189 110.172 284.153 110.883 284.619C110.83 283.951 110.569 283.317 110.137 282.806C110.069 282.744 109.989 282.696 109.902 282.665C109.815 282.635 109.723 282.622 109.631 282.628H109.659Z" fill="#407BFF"/>
<path d="M131.39 151.37L131.999 153.504C132.081 153.668 131.889 153.839 131.609 153.839H107.081C106.869 153.839 106.691 153.729 106.677 153.599L106.458 151.465C106.458 151.315 106.629 151.192 106.869 151.192H131C131.075 151.185 131.15 151.198 131.219 151.229C131.287 151.26 131.346 151.308 131.39 151.37Z" fill="#407BFF"/>
<path opacity="0.6" d="M131.39 151.37L131.999 153.504C132.081 153.668 131.889 153.839 131.609 153.839H107.081C106.869 153.839 106.691 153.729 106.677 153.599L106.458 151.465C106.458 151.315 106.629 151.192 106.869 151.192H131C131.075 151.185 131.15 151.198 131.219 151.229C131.287 151.26 131.346 151.308 131.39 151.37Z" fill="white"/>
<path d="M128.148 154.064H128.832C128.955 154.064 129.057 154.003 129.051 153.921L128.743 151.151C128.743 151.069 128.62 151 128.496 151H127.847C127.717 151 127.621 151.069 127.628 151.151L127.908 153.9C127.908 154.003 128.018 154.064 128.148 154.064Z" fill="#407BFF"/>
<path opacity="0.5" d="M128.148 154.064H128.832C128.955 154.064 129.057 154.003 129.051 153.921L128.743 151.151C128.743 151.069 128.62 151 128.496 151H127.847C127.717 151 127.621 151.069 127.628 151.151L127.908 153.9C127.908 154.003 128.018 154.064 128.148 154.064Z" fill="black"/>
<path d="M108.9 154.064H109.543C109.673 154.064 109.775 154.003 109.762 153.921L109.44 151.164C109.44 151.082 109.317 151.014 109.187 151.014H108.544C108.414 151.014 108.318 151.082 108.325 151.164L108.626 153.934C108.66 154.003 108.756 154.064 108.9 154.064Z" fill="#407BFF"/>
<path opacity="0.5" d="M108.9 154.064H109.543C109.673 154.064 109.775 154.003 109.762 153.921L109.44 151.164C109.44 151.082 109.317 151.014 109.187 151.014H108.544C108.414 151.014 108.318 151.082 108.325 151.164L108.626 153.934C108.66 154.003 108.756 154.064 108.9 154.064Z" fill="black"/>
<path d="M118.524 154.064H119.173C119.297 154.064 119.399 154.003 119.385 153.921L119.085 151.164C119.085 151.082 118.961 151.014 118.831 151.014H118.188C118.058 151.014 117.963 151.082 117.97 151.164L118.271 153.934C118.284 154.003 118.394 154.064 118.524 154.064Z" fill="#407BFF"/>
<path opacity="0.5" d="M118.524 154.064H119.173C119.297 154.064 119.399 154.003 119.385 153.921L119.085 151.164C119.085 151.082 118.961 151.014 118.831 151.014H118.188C118.058 151.014 117.963 151.082 117.97 151.164L118.271 153.934C118.284 154.003 118.394 154.064 118.524 154.064Z" fill="black"/>
<path d="M128.435 140.815L126.465 134.789L123.319 139.864C123.319 139.864 125.172 143.148 127.607 143.1L128.435 140.815Z" fill="#EEC1BB"/>
<path d="M124.372 127.908L122.826 147.908C122.784 148.429 122.537 148.913 122.14 149.252C121.743 149.592 121.227 149.761 120.706 149.721L82.6342 146.787C82.1125 146.745 81.6286 146.498 81.2878 146.101C80.947 145.704 80.777 145.188 80.8147 144.666L82.3606 124.666C82.3841 124.4 82.4617 124.141 82.5887 123.906C82.7158 123.671 82.8895 123.464 83.0993 123.298C83.4865 122.991 83.9738 122.837 84.4673 122.867L122.539 125.808C123.061 125.849 123.546 126.094 123.887 126.492C124.228 126.89 124.398 127.406 124.358 127.929L124.372 127.908Z" fill="#407BFF"/>
<path opacity="0.8" d="M124.372 127.908L122.826 147.908C122.784 148.429 122.537 148.913 122.14 149.252C121.743 149.592 121.227 149.761 120.706 149.721L82.6342 146.787C82.1125 146.745 81.6286 146.498 81.2878 146.101C80.947 145.704 80.777 145.188 80.8147 144.666L82.3606 124.666C82.3841 124.4 82.4617 124.141 82.5887 123.906C82.7158 123.671 82.8895 123.464 83.0993 123.298C83.4865 122.991 83.9738 122.837 84.4673 122.867L122.539 125.808C123.061 125.849 123.546 126.094 123.887 126.492C124.228 126.89 124.398 127.406 124.358 127.929L124.372 127.908Z" fill="white"/>
<path d="M123.852 126.39L107.545 137.546C106.036 138.581 104.219 139.072 102.394 138.936C100.568 138.801 98.8438 138.047 97.5042 136.8L83.0991 123.278C83.4863 122.97 83.9736 122.817 84.4671 122.847L122.539 125.788C123.036 125.819 123.504 126.033 123.852 126.39Z" fill="#407BFF"/>
<path opacity="0.6" d="M123.852 126.39L107.545 137.546C106.036 138.581 104.219 139.072 102.394 138.936C100.568 138.801 98.8438 138.047 97.5042 136.8L83.0991 123.278C83.4863 122.97 83.9736 122.817 84.4671 122.847L122.539 125.788C123.036 125.819 123.504 126.033 123.852 126.39Z" fill="white"/>
<path d="M122.368 132.046L119.967 136.431L123.852 140.665L126.465 134.789L122.368 132.046Z" fill="#EEC1BB"/>
<path d="M118.503 96.4441L117.436 95.9243C117.436 95.9243 117.86 96.8955 118.503 96.4441Z" fill="#263238"/>
<path d="M227.97 177.156H219.584V290.864H227.97V177.156Z" fill="#407BFF"/>
<path opacity="0.6" d="M227.97 177.156H219.584V290.864H227.97V177.156Z" fill="white"/>
<path d="M219.584 177.156H227.97V185.542L219.584 182.457V177.156Z" fill="#407BFF"/>
<path opacity="0.4" d="M219.584 177.156H227.97V185.542L219.584 182.457V177.156Z" fill="white"/>
<path d="M210.535 149.878C210.584 147.212 210.101 144.563 209.115 142.085C208.129 139.607 206.659 137.351 204.79 135.448C202.922 133.546 200.694 132.034 198.235 131.002C195.776 129.97 193.136 129.439 190.469 129.439C187.803 129.439 185.163 129.97 182.704 131.002C180.245 132.034 178.017 133.546 176.148 135.448C174.28 137.351 172.81 139.607 171.824 142.085C170.838 144.563 170.355 147.212 170.404 149.878V177.156H210.535V149.878Z" fill="#407BFF"/>
<path opacity="0.3" d="M210.535 149.878C210.584 147.212 210.101 144.563 209.115 142.085C208.129 139.607 206.659 137.351 204.79 135.448C202.922 133.546 200.694 132.034 198.235 131.002C195.776 129.97 193.136 129.439 190.469 129.439C187.803 129.439 185.163 129.97 182.704 131.002C180.245 132.034 178.017 133.546 176.148 135.448C174.28 137.351 172.81 139.607 171.824 142.085C170.838 144.563 170.355 147.212 170.404 149.878V177.156H210.535V149.878Z" fill="black"/>
<path d="M166.601 188.859C163.92 199.94 170.705 208.921 181.813 208.921C192.922 208.921 204.05 199.94 206.731 188.859L209.522 177.32C209.561 177.165 209.563 177.002 209.53 176.846C209.496 176.689 209.427 176.542 209.328 176.416C209.229 176.29 209.103 176.189 208.959 176.119C208.815 176.049 208.656 176.013 208.496 176.014H170.541C170.304 176.015 170.073 176.096 169.887 176.243C169.701 176.391 169.57 176.597 169.515 176.828L166.601 188.859Z" fill="#407BFF"/>
<path opacity="0.4" d="M166.601 188.859C163.92 199.94 170.705 208.921 181.813 208.921C192.922 208.921 204.05 199.94 206.731 188.859L209.522 177.32C209.561 177.165 209.563 177.002 209.53 176.846C209.496 176.689 209.427 176.542 209.328 176.416C209.229 176.29 209.103 176.189 208.959 176.119C208.815 176.049 208.656 176.013 208.496 176.014H170.541C170.304 176.015 170.073 176.096 169.887 176.243C169.701 176.391 169.57 176.597 169.515 176.828L166.601 188.859Z" fill="white"/>
<path d="M164.987 188.859C162.306 199.94 169.091 208.921 180.199 208.921C191.307 208.921 202.436 199.94 205.117 188.859L207.935 177.32C207.974 177.165 207.976 177.003 207.943 176.846C207.909 176.689 207.84 176.542 207.741 176.417C207.642 176.291 207.516 176.189 207.372 176.119C207.228 176.049 207.069 176.013 206.909 176.014H168.947C168.71 176.015 168.48 176.096 168.294 176.243C168.108 176.391 167.976 176.597 167.921 176.828L164.987 188.859Z" fill="#407BFF"/>
<path opacity="0.5" d="M164.987 188.859C162.306 199.94 169.091 208.921 180.199 208.921C191.307 208.921 202.436 199.94 205.117 188.859L207.935 177.32C207.974 177.165 207.976 177.003 207.943 176.846C207.909 176.689 207.84 176.542 207.741 176.417C207.642 176.291 207.516 176.189 207.372 176.119C207.228 176.049 207.069 176.013 206.909 176.014H168.947C168.71 176.015 168.48 176.096 168.294 176.243C168.108 176.391 167.976 176.597 167.921 176.828L164.987 188.859Z" fill="white"/>
<path d="M257.758 149.871V177.156H210.562V149.871C210.56 144.551 208.446 139.449 204.684 135.687C200.922 131.926 195.82 129.811 190.5 129.81H237.73C243.05 129.811 248.152 131.926 251.914 135.687C255.676 139.449 257.79 144.551 257.792 149.871H257.758Z" fill="#407BFF"/>
<path opacity="0.5" d="M257.758 149.871V177.156H210.562V149.871C210.56 144.551 208.446 139.449 204.684 135.687C200.922 131.926 195.82 129.811 190.5 129.81H237.73C243.05 129.811 248.152 131.926 251.914 135.687C255.676 139.449 257.79 144.551 257.792 149.871H257.758Z" fill="white"/>
<path d="M257.758 149.871V157.169H210.562V149.871C210.571 145.41 209.083 141.074 206.335 137.559H253.565C256.301 141.079 257.777 145.414 257.758 149.871Z" fill="#407BFF"/>
<path opacity="0.7" d="M257.758 149.871V157.169H210.562V149.871C210.571 145.41 209.083 141.074 206.335 137.559H253.565C256.301 141.079 257.777 145.414 257.758 149.871Z" fill="white"/>
<path d="M217.108 160.685V120.329C217.107 119.969 217.185 119.614 217.335 119.287C217.486 118.96 217.706 118.67 217.98 118.437C218.254 118.204 218.576 118.034 218.922 117.937C219.269 117.841 219.632 117.822 219.987 117.88L229.659 119.481C230.006 119.538 230.321 119.717 230.548 119.985C230.775 120.253 230.899 120.593 230.897 120.945V123.448C230.897 123.842 230.741 124.219 230.462 124.498C230.184 124.776 229.807 124.933 229.413 124.933H220.186V160.672C220.186 161.08 220.024 161.471 219.735 161.76C219.446 162.048 219.055 162.211 218.647 162.211C218.241 162.211 217.852 162.05 217.563 161.765C217.275 161.479 217.111 161.091 217.108 160.685Z" fill="#407BFF"/>
<path opacity="0.3" d="M217.108 160.685V120.329C217.107 119.969 217.185 119.614 217.335 119.287C217.486 118.96 217.706 118.67 217.98 118.437C218.254 118.204 218.576 118.034 218.922 117.937C219.269 117.841 219.632 117.822 219.987 117.88L229.659 119.481C230.006 119.538 230.321 119.717 230.548 119.985C230.775 120.253 230.899 120.593 230.897 120.945V123.448C230.897 123.842 230.741 124.219 230.462 124.498C230.184 124.776 229.807 124.933 229.413 124.933H220.186V160.672C220.186 161.08 220.024 161.471 219.735 161.76C219.446 162.048 219.055 162.211 218.647 162.211C218.241 162.211 217.852 162.05 217.563 161.765C217.275 161.479 217.111 161.091 217.108 160.685Z" fill="black"/>
<path d="M190.466 135.138V155.193C190.464 155.715 190.256 156.216 189.887 156.586C189.519 156.956 189.019 157.166 188.496 157.169H150.308C149.786 157.166 149.286 156.956 148.917 156.586C148.548 156.216 148.34 155.715 148.338 155.193V135.138C148.34 134.615 148.548 134.115 148.917 133.744C149.286 133.374 149.786 133.165 150.308 133.161H188.496C189.019 133.165 189.519 133.374 189.887 133.744C190.256 134.115 190.464 134.615 190.466 135.138Z" fill="#407BFF"/>
<path opacity="0.8" d="M190.466 135.138V155.193C190.464 155.715 190.256 156.216 189.887 156.586C189.519 156.956 189.019 157.166 188.496 157.169H150.308C149.786 157.166 149.286 156.956 148.917 156.586C148.548 156.216 148.34 155.715 148.338 155.193V135.138C148.34 134.615 148.548 134.115 148.917 133.744C149.286 133.374 149.786 133.165 150.308 133.161H188.496C189.019 133.165 189.519 133.374 189.887 133.744C190.256 134.115 190.464 134.615 190.466 135.138Z" fill="white"/>
<path d="M189.837 133.694L174.42 146.068C172.99 147.213 171.213 147.837 169.382 147.837C167.551 147.837 165.774 147.213 164.344 146.068L148.948 133.694C149.318 133.348 149.808 133.157 150.316 133.161H188.503C188.999 133.165 189.475 133.356 189.837 133.694Z" fill="#407BFF"/>
<path opacity="0.6" d="M189.837 133.694L174.42 146.068C172.99 147.213 171.213 147.837 169.382 147.837C167.551 147.837 165.774 147.213 164.344 146.068L148.948 133.694C149.318 133.348 149.808 133.157 150.316 133.161H188.503C188.999 133.165 189.475 133.356 189.837 133.694Z" fill="white"/>
<path d="M161.204 165.254V185.316C161.204 185.839 160.997 186.341 160.628 186.711C160.259 187.082 159.758 187.291 159.235 187.293H121.067C120.545 187.289 120.045 187.08 119.676 186.709C119.307 186.339 119.099 185.839 119.097 185.316V165.254C119.097 164.732 119.305 164.231 119.674 163.861C120.044 163.492 120.545 163.284 121.067 163.284H159.235C159.757 163.284 160.258 163.492 160.627 163.861C160.997 164.231 161.204 164.732 161.204 165.254Z" fill="#407BFF"/>
<path opacity="0.8" d="M161.204 165.254V185.316C161.204 185.839 160.997 186.341 160.628 186.711C160.259 187.082 159.758 187.291 159.235 187.293H121.067C120.545 187.289 120.045 187.08 119.676 186.709C119.307 186.339 119.099 185.839 119.097 185.316V165.254C119.097 164.732 119.305 164.231 119.674 163.861C120.044 163.492 120.545 163.284 121.067 163.284H159.235C159.757 163.284 160.258 163.492 160.627 163.861C160.997 164.231 161.204 164.732 161.204 165.254Z" fill="white"/>
<path d="M160.575 163.811L145.178 176.185C143.75 177.333 141.973 177.959 140.141 177.959C138.308 177.959 136.531 177.333 135.103 176.185L119.699 163.811C120.07 163.466 120.56 163.277 121.067 163.284H159.234C159.732 163.282 160.212 163.471 160.575 163.811Z" fill="#407BFF"/>
<path opacity="0.6" d="M160.575 163.811L145.178 176.185C143.75 177.333 141.973 177.959 140.141 177.959C138.308 177.959 136.531 177.333 135.103 176.185L119.699 163.811C120.07 163.466 120.56 163.277 121.067 163.284H159.234C159.732 163.282 160.212 163.471 160.575 163.811Z" fill="white"/>
<path d="M210.535 150.22V174.229H196.267C195.743 174.227 195.241 174.018 194.871 173.648C194.501 173.277 194.292 172.776 194.29 172.252V152.197C194.294 151.674 194.503 151.173 194.873 150.803C195.243 150.433 195.744 150.224 196.267 150.22H210.535Z" fill="#407BFF"/>
<path opacity="0.8" d="M210.535 150.22V174.229H196.267C195.743 174.227 195.241 174.018 194.871 173.648C194.501 173.277 194.292 172.776 194.29 172.252V152.197C194.294 151.674 194.503 151.173 194.873 150.803C195.243 150.433 195.744 150.224 196.267 150.22H210.535Z" fill="white"/>
<path d="M210.534 150.22V163.284C210.461 163.236 210.39 163.183 210.322 163.127L194.939 150.754C195.308 150.404 195.799 150.213 196.307 150.22H210.534Z" fill="#407BFF"/>
<path opacity="0.6" d="M210.534 150.22V163.284C210.461 163.236 210.39 163.183 210.322 163.127L194.939 150.754C195.308 150.404 195.799 150.213 196.307 150.22H210.534Z" fill="white"/>
<path opacity="0.5" d="M210.528 150.22H207.402V174.229H210.528V150.22Z" fill="#407BFF"/>
</svg>
