<svg width="20" height="20" viewBox="0 0 20 20" fill="none" xmlns="http://www.w3.org/2000/svg">
<path fill-rule="evenodd" clip-rule="evenodd" d="M1.66663 4.44428H18.3333V13.4721H16.9444V5.83317H3.05551V11.3887H7.91663V12.7776H1.66663V4.44428Z" fill="#BFBFBF"/>
<path fill-rule="evenodd" clip-rule="evenodd" d="M12.0833 9.99984C12.0833 8.08228 13.638 6.52762 15.5555 6.52762H16.25V12.4304C16.25 15.6903 13.6071 18.3332 10.3472 18.3332C7.08726 18.3332 4.4444 15.6903 4.4444 12.4304V11.3887H5.83329V12.4304C5.83329 14.9233 7.85432 16.9443 10.3472 16.9443C12.84 16.9443 14.8611 14.9233 14.8611 12.4304V8.03507C14.052 8.3211 13.4722 9.09283 13.4722 9.99984V12.0832H12.7777C11.6272 12.0832 10.6944 13.016 10.6944 14.1665V14.8609H9.30552V14.1665C9.30552 12.4868 10.4985 11.0855 12.0833 10.7637V9.99984Z" fill="#BFBFBF"/>
<path fill-rule="evenodd" clip-rule="evenodd" d="M8.61107 8.61095C8.61107 7.84389 9.2329 7.22206 9.99996 7.22206C10.767 7.22206 11.3888 7.84389 11.3888 8.61095C11.3888 9.37801 10.767 9.99984 9.99996 9.99984C9.2329 9.99984 8.61107 9.37801 8.61107 8.61095Z" fill="#BFBFBF"/>
<path d="M9.99996 9.30539C10.3835 9.30539 10.6944 8.99448 10.6944 8.61095C10.6944 8.22742 10.3835 7.9165 9.99996 7.9165C9.61643 7.9165 9.30552 8.22742 9.30552 8.61095C9.30552 8.99448 9.61643 9.30539 9.99996 9.30539Z" fill="#BFBFBF"/>
<path fill-rule="evenodd" clip-rule="evenodd" d="M4.4444 4.44428C4.4444 2.91006 5.68796 1.6665 7.22218 1.6665H12.7777C14.312 1.6665 15.5555 2.91006 15.5555 4.44428V5.83317H14.1666V4.44428C14.1666 3.67712 13.5449 3.05539 12.7777 3.05539H7.22218C6.45502 3.05539 5.83329 3.67712 5.83329 4.44428V5.83317H4.4444V4.44428Z" fill="#BFBFBF"/>
</svg>
