<svg width="16" height="16" viewBox="0 0 16 16" fill="none" xmlns="http://www.w3.org/2000/svg">
<path d="M14.3285 3.29851L11.216 3.67351C11.1129 3.68601 11.0691 3.81257 11.1426 3.88601L12.0691 4.81257L8.53788 8.34382L6.94725 6.75476C6.84881 6.65632 6.691 6.65789 6.59412 6.75476L1.56756 11.7829C1.5443 11.8064 1.53125 11.8381 1.53125 11.8712C1.53125 11.9042 1.5443 11.936 1.56756 11.9595L2.27069 12.6657C2.31913 12.7141 2.39881 12.7141 2.44725 12.6657L6.77069 8.34382L8.35975 9.93289C8.45819 10.0298 8.616 10.0298 8.71287 9.93289L12.9535 5.69539L13.8801 6.62195C13.8967 6.63847 13.9176 6.65 13.9404 6.65523C13.9632 6.66046 13.9871 6.65918 14.0092 6.65152C14.0314 6.64387 14.0509 6.63016 14.0656 6.61195C14.0804 6.59374 14.0897 6.57176 14.0926 6.54851L14.4676 3.43601C14.4785 3.35632 14.4097 3.28757 14.3285 3.29851Z" fill="#2EB553"/>
</svg>
