<svg width="57" height="56" viewBox="0 0 57 56" fill="none" xmlns="http://www.w3.org/2000/svg">
<path d="M53.4046 21.1445H28.5754L27.6025 35.5641L28.5754 51.625H53.4046V21.1445Z" fill="#1D50C9"/>
<path d="M3.59473 21.1445H28.5757V51.625H3.59473V21.1445Z" fill="#4D7AE5"/>
<path d="M8.30273 41.7554H19.7172V44.6418H8.30273V41.7554Z" fill="white"/>
<path d="M28.5689 5.25L27.6865 20.3555L28.5689 33.5859H41.933L48.6963 27.0905V5.25H28.5689Z" fill="#FEBC8F"/>
<path d="M8.30273 5.25V27.0905L15.066 33.5849H28.5683V5.25H8.30273Z" fill="#FFEADD"/>
<path d="M28.5689 28.9389C26.7217 28.9389 24.9161 28.3971 23.3802 27.3822C21.8444 26.3673 20.6473 24.9248 19.9404 23.237C19.2335 21.5492 19.0486 19.6921 19.409 17.9004C19.7693 16.1087 20.6588 14.4629 21.9649 13.1711C23.2711 11.8794 24.9352 10.9997 26.7469 10.6433C28.5585 10.2869 30.4364 10.4698 32.1429 11.1689C33.8495 11.868 35.3081 13.0519 36.3343 14.5708C37.3606 16.0897 37.9083 17.8755 37.9083 19.7023C37.9068 22.1515 36.9223 24.5 35.1712 26.2319C33.42 27.9637 31.0454 28.9373 28.5689 28.9389Z" fill="#FD8C45"/>
<path d="M37.9048 19.7062C37.903 17.2571 36.9185 14.9088 35.1674 13.177C33.4163 11.4452 31.0418 10.4715 28.5654 10.4697V28.9389C31.0412 28.9371 33.415 27.964 35.166 26.233C36.917 24.502 37.902 22.1547 37.9048 19.7062Z" fill="#FC6004"/>
<path d="M30.3482 18.6235H26.7856C26.6009 18.6235 26.4237 18.5509 26.2931 18.4217C26.1625 18.2925 26.0891 18.1173 26.0891 17.9346C26.0891 17.7519 26.1625 17.5767 26.2931 17.4475C26.4237 17.3183 26.6009 17.2457 26.7856 17.2457H32.1422V15.0848H29.6672V13.834H27.4783V15.0848H26.7847C26.0287 15.0985 25.3084 15.4051 24.7786 15.9387C24.2489 16.4723 23.9521 17.1902 23.9521 17.938C23.9521 18.6858 24.2489 19.4037 24.7786 19.9372C25.3084 20.4708 26.0287 20.7775 26.7847 20.7912H30.3482C30.533 20.7912 30.7101 20.8638 30.8408 20.993C30.9714 21.1222 31.0448 21.2974 31.0448 21.4801C31.0448 21.6628 30.9714 21.838 30.8408 21.9672C30.7101 22.0964 30.533 22.169 30.3482 22.169H24.9975V24.3328H27.4812V25.5769H29.6672V24.3338H30.3482C30.7273 24.3338 31.1028 24.2599 31.453 24.1164C31.8033 23.973 32.1215 23.7627 32.3896 23.4975C32.6577 23.2324 32.8703 22.9177 33.0154 22.5713C33.1605 22.2249 33.2352 21.8536 33.2352 21.4786C33.2352 21.1037 33.1605 20.7324 33.0154 20.386C32.8703 20.0396 32.6577 19.7249 32.3896 19.4598C32.1215 19.1946 31.8033 18.9843 31.453 18.8408C31.1028 18.6974 30.7273 18.6235 30.3482 18.6235Z" fill="white"/>
</svg>
