<svg width="24" height="24" viewBox="0 0 24 24" fill="none" xmlns="http://www.w3.org/2000/svg">
<path d="M14.38 22.0033C14.2031 22.0033 14.0296 21.954 13.879 21.861C13.7284 21.7681 13.6066 21.6351 13.5272 21.4769L10.7005 15.8207C10.6242 15.6678 10.5904 15.4973 10.6024 15.3268C10.6143 15.1564 10.6718 14.9923 10.7687 14.8515L15.3329 8.66893L9.15029 13.2313C9.00974 13.3282 8.84576 13.3857 8.67546 13.3977C8.50515 13.4097 8.33474 13.3758 8.18199 13.2995L2.52401 10.4728C2.35846 10.3894 2.22085 10.2594 2.12803 10.099C2.03521 9.93849 1.99122 9.75443 2.00145 9.56933C2.01168 9.38422 2.07569 9.20612 2.18562 9.05685C2.29556 8.90758 2.44665 8.79362 2.62038 8.72894L20.7181 2.05901C20.8888 1.99593 21.074 1.98311 21.2518 2.02206C21.4296 2.06102 21.5925 2.15012 21.7212 2.27882C21.8499 2.40751 21.939 2.5704 21.9779 2.74818C22.0169 2.92596 22.0041 3.11118 21.941 3.28189L15.272 21.3805C15.2078 21.5549 15.0939 21.7066 14.9444 21.8169C14.795 21.9273 14.6165 21.9915 14.431 22.0015L14.38 22.0033Z" fill="#366AE2"/>
</svg>
