<svg width="20" height="20" viewBox="0 0 20 20" fill="none" xmlns="http://www.w3.org/2000/svg">
<path d="M16.4923 11.009C16.5491 10.6757 16.5789 10.3382 16.5812 10C16.5789 9.66183 16.5491 9.32439 16.4923 8.99099L17.9507 7.58196C18.0619 7.47436 18.134 7.3327 18.1555 7.17946C18.177 7.02623 18.1467 6.8702 18.0694 6.73613L17.0278 4.93058C16.9494 4.79701 16.8291 4.69315 16.6854 4.63523C16.5418 4.57732 16.3831 4.5686 16.234 4.61044L14.2896 5.16599C13.7631 4.73719 13.1704 4.39687 12.5347 4.15835L12.0465 2.19308C12.009 2.04278 11.9224 1.90932 11.8003 1.81394C11.6783 1.71856 11.5278 1.66673 11.3729 1.66669H9.28957C9.13467 1.66673 8.98422 1.71856 8.86217 1.81394C8.74011 1.90932 8.65345 2.04278 8.61596 2.19308L8.12499 4.15835C7.49025 4.39714 6.89851 4.73745 6.3729 5.16599L4.42846 4.61044C4.27937 4.56872 4.12067 4.5775 3.97709 4.6354C3.83352 4.69331 3.71313 4.79709 3.63471 4.93058L2.59304 6.73613C2.5156 6.87027 2.48522 7.02645 2.50673 7.17983C2.52825 7.33322 2.60043 7.47501 2.71179 7.58266L4.17013 8.99169C4.11338 9.32486 4.08366 9.66206 4.08124 10C4.08362 10.3382 4.11334 10.6757 4.17013 11.009L2.71179 12.4181C2.60059 12.5257 2.52852 12.6673 2.507 12.8206C2.48549 12.9738 2.51577 13.1298 2.59304 13.2639L3.63471 15.0695C3.69572 15.1751 3.78349 15.2629 3.88919 15.3238C3.99488 15.3848 4.11478 15.4168 4.23679 15.4167C4.30134 15.4164 4.36556 15.4075 4.42777 15.3903L6.37221 14.8347C6.89866 15.2635 7.49135 15.6039 8.12707 15.8424L8.61804 17.8077C8.65557 17.9575 8.74198 18.0905 8.8636 18.1857C8.98523 18.2809 9.13512 18.3329 9.28957 18.3334H11.3729C11.5278 18.3333 11.6783 18.2815 11.8003 18.1861C11.9224 18.0907 12.009 17.9573 12.0465 17.807L12.5375 15.8417C13.1722 15.6029 13.764 15.2626 14.2896 14.834L16.234 15.3896C16.2962 15.4068 16.3604 15.4157 16.425 15.416C16.547 15.4161 16.6669 15.3841 16.7726 15.3231C16.8783 15.2622 16.9661 15.1744 17.0271 15.0688L18.0687 13.2632C18.1462 13.1291 18.1766 12.9729 18.155 12.8195C18.1335 12.6661 18.0613 12.5243 17.95 12.4167L16.4923 11.009ZM10.3312 12.7778C9.78184 12.7778 9.24479 12.6149 8.78799 12.3097C8.33118 12.0044 7.97515 11.5706 7.7649 11.063C7.55466 10.5555 7.49965 9.99694 7.60683 9.4581C7.71401 8.91927 7.97857 8.42431 8.36705 8.03583C8.75553 7.64736 9.25048 7.3828 9.78932 7.27562C10.3282 7.16844 10.8867 7.22344 11.3942 7.43369C11.9018 7.64393 12.3356 7.99997 12.6409 8.45677C12.9461 8.91357 13.109 9.45063 13.109 10C13.109 10.7367 12.8164 11.4433 12.2954 11.9642C11.7745 12.4851 11.0679 12.7778 10.3312 12.7778Z" fill="#366AE2"/>
</svg>
