<svg width="57" height="57" viewBox="0 0 57 57" fill="none" xmlns="http://www.w3.org/2000/svg">
<path d="M34.7305 18.5046L37.2462 14.8662L39.6073 16.5436L37.0915 20.182L34.7305 18.5046Z" fill="#6E87AA"/>
<path d="M34.7305 18.5046L37.2462 14.8662L39.6073 16.5436L37.0915 20.182L34.7305 18.5046Z" fill="#1B46C2"/>
<path d="M11.625 16.5222L13.986 14.8447L16.5018 18.4831L14.1408 20.1605L11.625 16.5222Z" fill="#366AE2"/>
<path d="M20.7656 9.39648H30.4491V17.8324H20.7656V9.39648Z" fill="#FEC49A"/>
<path d="M25.6074 9.39648H30.4496V17.8324H25.6074V9.39648Z" fill="#FD8C45"/>
<path d="M17.5928 4H33.6223V12.319H17.5928V4Z" fill="#FD8C45"/>
<path d="M25.6074 4H33.6227V12.319H25.6074V4Z" fill="#FC6004"/>
<path d="M25.6069 53.8742C36.3103 53.8742 44.9872 45.0783 44.9872 34.2281C44.9872 23.3779 36.3103 14.582 25.6069 14.582C14.9034 14.582 6.22656 23.3779 6.22656 34.2281C6.22656 45.0783 14.9034 53.8742 25.6069 53.8742Z" fill="#6E91E9"/>
<path d="M25.6074 14.582V53.8751C36.2941 53.8751 44.9887 45.0613 44.9887 34.2291C44.9887 23.3969 36.2941 14.582 25.6074 14.582Z" fill="#2F5FDE"/>
<path d="M25.607 46.8046C32.4585 46.8046 38.0127 41.1742 38.0127 34.2287C38.0127 27.2833 32.4585 21.6528 25.607 21.6528C18.7554 21.6528 13.2012 27.2833 13.2012 34.2287C13.2012 41.1742 18.7554 46.8046 25.607 46.8046Z" fill="white"/>
<path d="M25.6074 21.6519V46.8046C27.2458 46.8193 28.8709 46.5047 30.3887 45.8793C31.9066 45.2538 33.2872 44.3298 34.4508 43.1605C35.6145 41.9912 36.5381 40.5999 37.1685 39.0668C37.7988 37.5337 38.1234 35.8892 38.1234 34.2282C38.1234 32.5673 37.7988 30.9228 37.1685 29.3897C36.5381 27.8566 35.6145 26.4653 34.4508 25.296C33.2872 24.1267 31.9066 23.2027 30.3887 22.5772C28.8709 21.9517 27.2458 21.6372 25.6074 21.6519Z" fill="#FFEADD"/>
<path d="M25.607 48.2661C17.9713 48.2661 11.7598 41.9693 11.7598 34.229C11.7598 26.4886 17.9713 20.1909 25.607 20.1909C33.2426 20.1909 39.4551 26.4886 39.4551 34.229C39.4551 41.9693 33.2426 48.2661 25.607 48.2661ZM25.607 23.1133C23.4382 23.1133 21.3182 23.7652 19.515 24.9866C17.7117 26.208 16.3063 27.9441 15.4763 29.9752C14.6464 32.0063 14.4292 34.2413 14.8523 36.3975C15.2754 38.5538 16.3198 40.5344 17.8533 42.089C19.3868 43.6435 21.3407 44.7022 23.4677 45.1311C25.5948 45.56 27.7996 45.3399 29.8032 44.4985C31.8069 43.6572 33.5194 42.2325 34.7243 40.4045C35.9292 38.5766 36.5723 36.4275 36.5723 34.229C36.569 31.2819 35.4126 28.4566 33.357 26.3727C31.3013 24.2888 28.5141 23.1166 25.607 23.1133Z" fill="#2F5FDE"/>
<path d="M25.6074 20.1909V23.1133C27.056 23.0995 28.4929 23.3769 29.8351 23.9293C31.1773 24.4817 32.3982 25.2983 33.4274 26.3318C34.4565 27.3653 35.2734 28.5953 35.8309 29.9507C36.3884 31.3061 36.6754 32.76 36.6754 34.2285C36.6754 35.697 36.3884 37.1509 35.8309 38.5063C35.2734 39.8617 34.4565 41.0917 33.4274 42.1252C32.3982 43.1587 31.1773 43.9752 29.8351 44.5277C28.4929 45.0801 27.056 45.3575 25.6074 45.3437V48.2661C33.2431 48.2661 39.4556 41.9693 39.4556 34.229C39.4556 26.4886 33.2431 20.1909 25.6074 20.1909Z" fill="#1B46C2"/>
<path d="M25.6067 40.1223C28.8175 40.1223 31.4204 37.4837 31.4204 34.2289C31.4204 30.974 28.8175 28.3354 25.6067 28.3354C22.3959 28.3354 19.793 30.974 19.793 34.2289C19.793 37.4837 22.3959 40.1223 25.6067 40.1223Z" fill="#FD8C45"/>
<path d="M31.4211 34.2289C31.4193 32.6664 30.8063 31.1684 29.7164 30.0636C28.6265 28.9587 27.1488 28.3373 25.6074 28.3354V40.1223C27.1488 40.1205 28.6265 39.499 29.7164 38.3942C30.8063 37.2893 31.4193 35.7914 31.4211 34.2289Z" fill="#FC6004"/>
<path d="M43.8627 53.875C48.1631 53.875 51.6492 50.341 51.6492 45.9817C51.6492 41.6223 48.1631 38.0884 43.8627 38.0884C39.5623 38.0884 36.0762 41.6223 36.0762 45.9817C36.0762 50.341 39.5623 53.875 43.8627 53.875Z" fill="#FD8C45"/>
<path d="M51.6489 45.9846C51.6461 43.8928 50.8251 41.8875 49.366 40.4084C47.9069 38.9293 45.9287 38.0971 43.8652 38.0942V53.875C45.9286 53.8719 47.9067 53.0396 49.3657 51.5605C50.8248 50.0815 51.6458 48.0763 51.6489 45.9846Z" fill="#FC6004"/>
<path d="M44.9179 41.2729H42.8076V47.6905H44.9179V41.2729Z" fill="white"/>
<path d="M44.9179 48.5522H42.8076V50.6914H44.9179V48.5522Z" fill="white"/>
</svg>
