<svg width="20" height="20" viewBox="0 0 20 20" fill="none" xmlns="http://www.w3.org/2000/svg">
<g clip-path="url(#clip0_18246_69449)">
<path fill-rule="evenodd" clip-rule="evenodd" d="M6.1364 0.833313H13.8637V3.86362H19.1667V5.53028H0.833374V3.86362H6.1364V0.833313ZM7.80307 3.86362H12.197V2.49998H7.80307V3.86362ZM4.7113 6.83668L5.42747 16.8664C5.43971 17.0384 5.5167 17.1996 5.6429 17.3171C5.7691 17.4346 5.93514 17.5 6.10762 17.5H13.8925C14.0649 17.5 14.231 17.4346 14.3572 17.3171C14.4834 17.1996 14.5604 17.0386 14.5726 16.8666L15.2888 6.83668L16.9512 6.95539L16.2351 16.9849C16.2351 16.985 16.2351 16.9848 16.2351 16.9849C16.1928 17.5773 15.9277 18.132 15.4931 18.5368C15.0584 18.9416 14.4864 19.1667 13.8924 19.1666H6.10764C5.51363 19.1667 4.94169 18.9416 4.50701 18.5368C4.07237 18.132 3.80725 17.5775 3.76504 16.9851C3.76503 16.985 3.76504 16.9852 3.76504 16.9851L3.04886 6.95539L4.7113 6.83668Z" fill="#6E87AA"/>
</g>
<defs>
<clipPath id="clip0_18246_69449">
<rect width="20" height="20" fill="white"/>
</clipPath>
</defs>
</svg>
