<svg width="24" height="24" viewBox="0 0 24 24" fill="none" xmlns="http://www.w3.org/2000/svg">
<path d="M16.1667 3C15.4125 3 14.725 3.2808 14.1667 3.7362C14.8958 4.7874 15.3333 6.0879 15.3333 7.5V8.4C15.3333 9.2577 15.1725 10.0758 14.8833 10.8219C15.2792 11.0001 15.7117 11.1 16.1667 11.1C18.0075 11.1 19.5 9.4881 19.5 7.5V6.6C19.5 4.6119 18.0075 3 16.1667 3Z" fill="#366AE2"/>
<path d="M9.5 12.9C7.19917 12.9 5.33333 10.8849 5.33333 8.4V7.5C5.33333 5.0151 7.19917 3 9.5 3C11.8008 3 13.6667 5.0151 13.6667 7.5V8.4C13.6667 10.8849 11.8008 12.9 9.5 12.9Z" fill="#366AE2"/>
<path d="M21.0325 14.1645C19.9625 13.6335 18.1283 12.9 16.1667 12.9C15.1708 12.9 14.2083 13.0899 13.3608 13.3455C13.6742 13.4157 13.9883 13.4868 14.3025 13.5732C16.7283 14.241 18.4442 16.5207 18.6292 19.2H21.1667C21.6267 19.2 22 18.7968 22 18.3V15.7989C22 15.0951 21.625 14.4579 21.0325 14.1645Z" fill="#366AE2"/>
<path d="M16.1667 21H2.83333C2.37333 21 2 20.5968 2 20.1V19.6725C2 17.625 3.2725 15.8232 5.10917 15.3174C6.3375 14.979 7.85083 14.7 9.5 14.7C11.1492 14.7 12.6625 14.979 13.8908 15.3174C15.7275 15.8232 17 17.625 17 19.6725V20.1C17 20.5968 16.6267 21 16.1667 21Z" fill="#366AE2"/>
</svg>
